<svg width="190" height="17" viewBox="0 0 190 17" fill="none" xmlns="http://www.w3.org/2000/svg">
<path d="M4.94531 8.50781H8.13281L6.96094 5.89844C6.89323 5.73177 6.82292 5.54167 6.75 5.32812C6.67708 5.10938 6.60417 4.86719 6.53125 4.60156C6.46875 4.85156 6.40104 5.08594 6.32812 5.30469C6.26042 5.51823 6.1901 5.71615 6.11719 5.89844L4.94531 8.50781ZM10.0859 13L8.78906 10.0547H4.25781L2.92969 13H0.976562L6.51562 1.10938L12.0469 13H10.0859ZM13.0625 13V0.890625H14.7578V13H13.0625ZM18.8828 6.77344C19.0651 6.28385 19.3047 5.92188 19.6016 5.6875C19.9036 5.45312 20.276 5.33594 20.7188 5.33594C20.9583 5.33594 21.1927 5.36458 21.4219 5.42188C21.6562 5.47917 21.8854 5.5625 22.1094 5.67188L21.5 7.10938C21.3542 7.00521 21.1953 6.92969 21.0234 6.88281C20.8568 6.83073 20.6693 6.80469 20.4609 6.80469C19.8984 6.80469 19.4948 7.03125 19.25 7.48438C19.0052 7.93229 18.8828 8.6875 18.8828 9.75V13H17.1875V5.57812H18.8828V6.77344ZM30.2109 9.54688H24.2891C24.3307 10.2396 24.5365 10.7812 24.9062 11.1719C25.276 11.5573 25.7682 11.75 26.3828 11.75C26.9297 11.75 27.3854 11.6354 27.75 11.4062C28.1146 11.1771 28.4323 10.8073 28.7031 10.2969L30.1328 11.0938C29.7161 11.8385 29.2005 12.3932 28.5859 12.7578C27.9714 13.1224 27.25 13.3047 26.4219 13.3047C25.2344 13.3047 24.2891 12.9427 23.5859 12.2188C22.8828 11.4948 22.5312 10.5286 22.5312 9.32031C22.5312 8.15885 22.8932 7.20573 23.6172 6.46094C24.3464 5.71094 25.2812 5.33594 26.4219 5.33594C27.6146 5.33594 28.5443 5.67708 29.2109 6.35938C29.8776 7.04167 30.2109 7.9974 30.2109 9.22656V9.54688ZM28.4531 8.40625C28.3854 7.875 28.1823 7.47135 27.8438 7.19531C27.5052 6.91406 27.0417 6.77344 26.4531 6.77344C25.8958 6.77344 25.4479 6.90885 25.1094 7.17969C24.7708 7.45052 24.5339 7.85938 24.3984 8.40625H28.4531ZM38.9531 13H37.2578V12.0391C36.9557 12.4661 36.6016 12.7839 36.1953 12.9922C35.7943 13.2005 35.3333 13.3047 34.8125 13.3047C33.7656 13.3047 32.9401 12.9479 32.3359 12.2344C31.737 11.5156 31.4375 10.5339 31.4375 9.28906C31.4375 8.10677 31.7448 7.15365 32.3594 6.42969C32.974 5.70052 33.776 5.33594 34.7656 5.33594C35.3698 5.33594 35.8854 5.46354 36.3125 5.71875C36.7448 5.96875 37.0599 6.33073 37.2578 6.80469V5.59375H38.9531V13ZM37.3047 9.27344C37.3047 8.50781 37.125 7.91146 36.7656 7.48438C36.4115 7.05729 35.9141 6.84375 35.2734 6.84375C34.6328 6.84375 34.1276 7.0651 33.7578 7.50781C33.3932 7.94531 33.2109 8.55469 33.2109 9.33594C33.2109 10.1224 33.388 10.7292 33.7422 11.1562C34.0964 11.5833 34.5964 11.7969 35.2422 11.7969C35.8516 11.7969 36.3464 11.5651 36.7266 11.1016C37.112 10.638 37.3047 10.0286 37.3047 9.27344ZM46.6172 9.27344C46.6172 8.50781 46.4375 7.91146 46.0781 7.48438C45.724 7.05729 45.2266 6.84375 44.5859 6.84375C43.9453 6.84375 43.4401 7.0651 43.0703 7.50781C42.7057 7.94531 42.5234 8.55469 42.5234 9.33594C42.5234 10.1224 42.7005 10.7292 43.0547 11.1562C43.4089 11.5833 43.9089 11.7969 44.5547 11.7969C45.1693 11.7969 45.6667 11.5677 46.0469 11.1094C46.4271 10.6458 46.6172 10.0339 46.6172 9.27344ZM46.5703 0.890625H48.2656V13H46.5703V12.0391C46.2682 12.4661 45.9141 12.7839 45.5078 12.9922C45.1068 13.2005 44.6458 13.3047 44.125 13.3047C43.0781 13.3047 42.2526 12.9479 41.6484 12.2344C41.0495 11.5156 40.75 10.5339 40.75 9.28906C40.75 8.10677 41.0573 7.15365 41.6719 6.42969C42.2865 5.70052 43.0885 5.33594 44.0781 5.33594C44.6823 5.33594 45.1979 5.46354 45.625 5.71875C46.0573 5.96875 46.3724 6.33073 46.5703 6.80469V0.890625ZM51.8828 16.4844H50.1406L52.1719 12.3594L49.4531 5.59375H51.3281L52.6875 9.42969C52.7656 9.66406 52.8333 9.90365 52.8906 10.1484C52.9531 10.388 53.0026 10.6328 53.0391 10.8828C53.1068 10.6224 53.2682 10.2083 53.5234 9.64062L53.5625 9.54688L55.3906 5.59375H57.2266L51.8828 16.4844ZM62.9844 13V0.890625H64.5781V6.80469C64.9167 6.29427 65.3151 5.92188 65.7734 5.6875C66.2318 5.45312 66.7891 5.33594 67.4453 5.33594C67.9974 5.33594 68.4661 5.42448 68.8516 5.60156C69.2422 5.77344 69.5469 6.03125 69.7656 6.375C69.8958 6.57812 69.9896 6.8151 70.0469 7.08594C70.1042 7.35677 70.1328 7.83073 70.1328 8.50781V13H68.4219V9.19531C68.4219 8.22135 68.3021 7.57552 68.0625 7.25781C67.8281 6.9349 67.4089 6.77344 66.8047 6.77344C66.4089 6.77344 66.0547 6.84635 65.7422 6.99219C65.4349 7.13802 65.1927 7.34375 65.0156 7.60938C64.8906 7.78646 64.8021 8.01562 64.75 8.29688C64.7031 8.57292 64.6797 9.01562 64.6797 9.625V13H62.9844ZM79.3594 13H77.6641V12.0391C77.362 12.4661 77.0078 12.7839 76.6016 12.9922C76.2005 13.2005 75.7396 13.3047 75.2188 13.3047C74.1719 13.3047 73.3464 12.9479 72.7422 12.2344C72.1432 11.5156 71.8438 10.5339 71.8438 9.28906C71.8438 8.10677 72.151 7.15365 72.7656 6.42969C73.3802 5.70052 74.1823 5.33594 75.1719 5.33594C75.776 5.33594 76.2917 5.46354 76.7188 5.71875C77.151 5.96875 77.4661 6.33073 77.6641 6.80469V5.59375H79.3594V13ZM77.7109 9.27344C77.7109 8.50781 77.5312 7.91146 77.1719 7.48438C76.8177 7.05729 76.3203 6.84375 75.6797 6.84375C75.0391 6.84375 74.5339 7.0651 74.1641 7.50781C73.7995 7.94531 73.6172 8.55469 73.6172 9.33594C73.6172 10.1224 73.7943 10.7292 74.1484 11.1562C74.5026 11.5833 75.0026 11.7969 75.6484 11.7969C76.2578 11.7969 76.7526 11.5651 77.1328 11.1016C77.5182 10.638 77.7109 10.0286 77.7109 9.27344ZM84.3047 13.4453L80.4219 5.59375H82.2734L83.8906 9.32031C83.9427 9.4349 84.0052 9.60677 84.0781 9.83594C84.151 10.0651 84.2266 10.3385 84.3047 10.6562C84.3568 10.4323 84.4167 10.2109 84.4844 9.99219C84.5573 9.76823 84.6432 9.54427 84.7422 9.32031L86.3516 5.59375H88.1953L84.3047 13.4453ZM96.3984 9.54688H90.4766C90.5182 10.2396 90.724 10.7812 91.0938 11.1719C91.4635 11.5573 91.9557 11.75 92.5703 11.75C93.1172 11.75 93.5729 11.6354 93.9375 11.4062C94.3021 11.1771 94.6198 10.8073 94.8906 10.2969L96.3203 11.0938C95.9036 11.8385 95.388 12.3932 94.7734 12.7578C94.1589 13.1224 93.4375 13.3047 92.6094 13.3047C91.4219 13.3047 90.4766 12.9427 89.7734 12.2188C89.0703 11.4948 88.7188 10.5286 88.7188 9.32031C88.7188 8.15885 89.0807 7.20573 89.8047 6.46094C90.5339 5.71094 91.4688 5.33594 92.6094 5.33594C93.8021 5.33594 94.7318 5.67708 95.3984 6.35938C96.0651 7.04167 96.3984 7.9974 96.3984 9.22656V9.54688ZM94.6406 8.40625C94.5729 7.875 94.3698 7.47135 94.0312 7.19531C93.6927 6.91406 93.2292 6.77344 92.6406 6.77344C92.0833 6.77344 91.6354 6.90885 91.2969 7.17969C90.9583 7.45052 90.7214 7.85938 90.5859 8.40625H94.6406ZM109.969 13H108.273V12.0391C107.971 12.4661 107.617 12.7839 107.211 12.9922C106.81 13.2005 106.349 13.3047 105.828 13.3047C104.781 13.3047 103.956 12.9479 103.352 12.2344C102.753 11.5156 102.453 10.5339 102.453 9.28906C102.453 8.10677 102.76 7.15365 103.375 6.42969C103.99 5.70052 104.792 5.33594 105.781 5.33594C106.385 5.33594 106.901 5.46354 107.328 5.71875C107.76 5.96875 108.076 6.33073 108.273 6.80469V5.59375H109.969V13ZM108.32 9.27344C108.32 8.50781 108.141 7.91146 107.781 7.48438C107.427 7.05729 106.93 6.84375 106.289 6.84375C105.648 6.84375 105.143 7.0651 104.773 7.50781C104.409 7.94531 104.227 8.55469 104.227 9.33594C104.227 10.1224 104.404 10.7292 104.758 11.1562C105.112 11.5833 105.612 11.7969 106.258 11.7969C106.867 11.7969 107.362 11.5651 107.742 11.1016C108.128 10.638 108.32 10.0286 108.32 9.27344ZM112.312 13V5.59375H113.906V6.80469C114.245 6.29427 114.643 5.92188 115.102 5.6875C115.56 5.45312 116.117 5.33594 116.773 5.33594C117.326 5.33594 117.794 5.42448 118.18 5.60156C118.57 5.77344 118.875 6.03125 119.094 6.375C119.224 6.57812 119.318 6.8151 119.375 7.08594C119.432 7.35677 119.461 7.83073 119.461 8.50781V13H117.75V9.19531C117.75 8.22135 117.63 7.57552 117.391 7.25781C117.156 6.9349 116.737 6.77344 116.133 6.77344C115.737 6.77344 115.383 6.84635 115.07 6.99219C114.763 7.13802 114.521 7.34375 114.344 7.60938C114.219 7.78646 114.13 8.01562 114.078 8.29688C114.031 8.57292 114.008 9.01562 114.008 9.625V13H112.312ZM133.516 13H131.82V12.0391C131.518 12.4661 131.164 12.7839 130.758 12.9922C130.357 13.2005 129.896 13.3047 129.375 13.3047C128.328 13.3047 127.503 12.9479 126.898 12.2344C126.299 11.5156 126 10.5339 126 9.28906C126 8.10677 126.307 7.15365 126.922 6.42969C127.536 5.70052 128.339 5.33594 129.328 5.33594C129.932 5.33594 130.448 5.46354 130.875 5.71875C131.307 5.96875 131.622 6.33073 131.82 6.80469V5.59375H133.516V13ZM131.867 9.27344C131.867 8.50781 131.688 7.91146 131.328 7.48438C130.974 7.05729 130.477 6.84375 129.836 6.84375C129.195 6.84375 128.69 7.0651 128.32 7.50781C127.956 7.94531 127.773 8.55469 127.773 9.33594C127.773 10.1224 127.951 10.7292 128.305 11.1562C128.659 11.5833 129.159 11.7969 129.805 11.7969C130.414 11.7969 130.909 11.5651 131.289 11.1016C131.674 10.638 131.867 10.0286 131.867 9.27344ZM141.391 7.70312C141.13 7.41667 140.826 7.19792 140.477 7.04688C140.133 6.89583 139.76 6.82031 139.359 6.82031C138.667 6.82031 138.112 7.04427 137.695 7.49219C137.279 7.9401 137.07 8.53385 137.07 9.27344C137.07 10.0443 137.279 10.651 137.695 11.0938C138.117 11.5312 138.698 11.75 139.438 11.75C139.849 11.75 140.216 11.6745 140.539 11.5234C140.862 11.3672 141.146 11.1328 141.391 10.8203V12.7734C141.078 12.9505 140.742 13.0833 140.383 13.1719C140.029 13.2604 139.651 13.3047 139.25 13.3047C138.089 13.3047 137.141 12.9349 136.406 12.1953C135.677 11.4557 135.312 10.4974 135.312 9.32031C135.312 8.1276 135.69 7.16667 136.445 6.4375C137.206 5.70312 138.198 5.33594 139.422 5.33594C139.807 5.33594 140.161 5.375 140.484 5.45312C140.807 5.52604 141.109 5.64062 141.391 5.79688V7.70312ZM148.656 7.70312C148.396 7.41667 148.091 7.19792 147.742 7.04688C147.398 6.89583 147.026 6.82031 146.625 6.82031C145.932 6.82031 145.378 7.04427 144.961 7.49219C144.544 7.9401 144.336 8.53385 144.336 9.27344C144.336 10.0443 144.544 10.651 144.961 11.0938C145.383 11.5312 145.964 11.75 146.703 11.75C147.115 11.75 147.482 11.6745 147.805 11.5234C148.128 11.3672 148.411 11.1328 148.656 10.8203V12.7734C148.344 12.9505 148.008 13.0833 147.648 13.1719C147.294 13.2604 146.917 13.3047 146.516 13.3047C145.354 13.3047 144.406 12.9349 143.672 12.1953C142.943 11.4557 142.578 10.4974 142.578 9.32031C142.578 8.1276 142.956 7.16667 143.711 6.4375C144.471 5.70312 145.464 5.33594 146.688 5.33594C147.073 5.33594 147.427 5.375 147.75 5.45312C148.073 5.52604 148.375 5.64062 148.656 5.79688V7.70312ZM156.211 9.32031C156.211 8.63281 155.99 8.05208 155.547 7.57812C155.104 7.09896 154.562 6.85938 153.922 6.85938C153.286 6.85938 152.745 7.09896 152.297 7.57812C151.854 8.05208 151.633 8.63281 151.633 9.32031C151.633 10.0078 151.854 10.5911 152.297 11.0703C152.745 11.5443 153.286 11.7812 153.922 11.7812C154.557 11.7812 155.096 11.5443 155.539 11.0703C155.987 10.5911 156.211 10.0078 156.211 9.32031ZM149.844 9.30469C149.844 8.76302 149.945 8.2526 150.148 7.77344C150.357 7.28906 150.654 6.85938 151.039 6.48438C151.419 6.11458 151.857 5.83073 152.352 5.63281C152.846 5.4349 153.365 5.33594 153.906 5.33594C154.464 5.33594 154.987 5.4349 155.477 5.63281C155.971 5.83073 156.414 6.1224 156.805 6.50781C157.195 6.88802 157.492 7.31771 157.695 7.79688C157.898 8.27604 158 8.77865 158 9.30469C158 9.85156 157.898 10.3646 157.695 10.8438C157.497 11.3229 157.206 11.7474 156.82 12.1172C156.414 12.5078 155.964 12.8021 155.469 13C154.974 13.2031 154.453 13.3047 153.906 13.3047C153.37 13.3047 152.854 13.2031 152.359 13C151.865 12.8021 151.424 12.513 151.039 12.1328C150.648 11.7474 150.352 11.3151 150.148 10.8359C149.945 10.3568 149.844 9.84635 149.844 9.30469ZM161.438 5.59375V9.76562C161.438 10.4844 161.586 11 161.883 11.3125C162.18 11.625 162.661 11.7812 163.328 11.7812C163.995 11.7812 164.477 11.625 164.773 11.3125C165.07 11 165.219 10.4844 165.219 9.76562V5.59375H166.914V9.25781C166.914 10.6745 166.63 11.7031 166.062 12.3438C165.495 12.9844 164.589 13.3047 163.344 13.3047C162.078 13.3047 161.161 12.987 160.594 12.3516C160.026 11.7161 159.742 10.6849 159.742 9.25781V5.59375H161.438ZM169.203 13V5.59375H170.797V6.80469C171.135 6.29427 171.534 5.92188 171.992 5.6875C172.451 5.45312 173.008 5.33594 173.664 5.33594C174.216 5.33594 174.685 5.42448 175.07 5.60156C175.461 5.77344 175.766 6.03125 175.984 6.375C176.115 6.57812 176.208 6.8151 176.266 7.08594C176.323 7.35677 176.352 7.83073 176.352 8.50781V13H174.641V9.19531C174.641 8.22135 174.521 7.57552 174.281 7.25781C174.047 6.9349 173.628 6.77344 173.023 6.77344C172.628 6.77344 172.273 6.84635 171.961 6.99219C171.654 7.13802 171.411 7.34375 171.234 7.60938C171.109 7.78646 171.021 8.01562 170.969 8.29688C170.922 8.57292 170.898 9.01562 170.898 9.625V13H169.203ZM179.008 13V7.07812H177.711V5.59375H179.008V2.78906H180.703V5.59375H182V7.07812H180.703V13H179.008ZM185.273 4.28125H183.93C183.93 4.25 183.927 4.20312 183.922 4.14062C183.917 4.07292 183.914 4.02344 183.914 3.99219C183.914 3.17448 184.161 2.52083 184.656 2.03125C185.156 1.53646 185.82 1.28906 186.648 1.28906C187.497 1.28906 188.172 1.53385 188.672 2.02344C189.177 2.50781 189.43 3.15885 189.43 3.97656C189.43 4.57552 189.281 5.06771 188.984 5.45312C188.693 5.83333 188.112 6.23698 187.242 6.66406C187.201 6.6849 187.138 6.71615 187.055 6.75781C186.029 7.26823 185.516 7.75 185.516 8.20312C185.516 8.46354 185.617 8.69271 185.82 8.89062C186.023 9.08333 186.268 9.17969 186.555 9.17969C186.904 9.17969 187.172 9.07552 187.359 8.86719C187.547 8.65885 187.646 8.35677 187.656 7.96094H189.047V8.11719C189.047 8.88802 188.831 9.48438 188.398 9.90625C187.966 10.3281 187.352 10.5391 186.555 10.5391C185.815 10.5391 185.206 10.3229 184.727 9.89062C184.247 9.45312 184.008 8.90104 184.008 8.23438C184.008 7.61979 184.172 7.10938 184.5 6.70312C184.833 6.29688 185.479 5.86198 186.438 5.39844C187.089 5.09115 187.505 4.83854 187.688 4.64062C187.87 4.4375 187.961 4.19531 187.961 3.91406C187.961 3.5651 187.836 3.27865 187.586 3.05469C187.341 2.82552 187.029 2.71094 186.648 2.71094C186.221 2.71094 185.885 2.85156 185.641 3.13281C185.396 3.40885 185.273 3.79167 185.273 4.28125ZM185.398 12.2812C185.398 12 185.5 11.7604 185.703 11.5625C185.906 11.3594 186.146 11.2578 186.422 11.2578C186.714 11.2578 186.956 11.3568 187.148 11.5547C187.346 11.7526 187.445 11.9948 187.445 12.2812C187.445 12.5625 187.346 12.8021 187.148 13C186.951 13.2031 186.708 13.3047 186.422 13.3047C186.141 13.3047 185.898 13.2031 185.695 13C185.497 12.8021 185.398 12.5625 185.398 12.2812Z" fill="#222222"/>
</svg>
