<svg width="16" height="18" viewBox="0 0 16 18" fill="none" xmlns="http://www.w3.org/2000/svg">
<path d="M5.5 8.16667H3.83333V9.83334H5.5V8.16667ZM8.83333 8.16667H7.16667V9.83334H8.83333V8.16667ZM12.1667 8.16667H10.5V9.83334H12.1667V8.16667ZM13.8333 2.33334H13V0.666672H11.3333V2.33334H4.66667V0.666672H3V2.33334H2.16667C1.24167 2.33334 0.508333 3.08334 0.508333 4.00001L0.5 15.6667C0.5 16.1087 0.675595 16.5326 0.988155 16.8452C1.30072 17.1577 1.72464 17.3333 2.16667 17.3333H13.8333C14.75 17.3333 15.5 16.5833 15.5 15.6667V4.00001C15.5 3.08334 14.75 2.33334 13.8333 2.33334ZM13.8333 15.6667H2.16667V6.5H13.8333V15.6667Z" fill="#222222"/>
</svg>
