<svg width="16" height="19" viewBox="0 0 16 19" fill="none" xmlns="http://www.w3.org/2000/svg">
<path d="M11.3335 14.5V16.1667C11.3335 16.6087 11.1579 17.0326 10.8453 17.3452C10.5328 17.6577 10.1089 17.8333 9.66683 17.8333H3.00016C2.55814 17.8333 2.13421 17.6577 1.82165 17.3452C1.50909 17.0326 1.3335 16.6087 1.3335 16.1667V7C1.3335 6.55797 1.50909 6.13405 1.82165 5.82149C2.13421 5.50893 2.55814 5.33333 3.00016 5.33333H4.66683L11.3335 14.5ZM10.2377 1.16666H6.3335C5.89147 1.16666 5.46755 1.34226 5.15499 1.65482C4.84242 1.96738 4.66683 2.3913 4.66683 2.83333V12.8333C4.66683 13.2754 4.84242 13.6993 5.15499 14.0118C5.46755 14.3244 5.89147 14.5 6.3335 14.5H13.0002C13.4422 14.5 13.8661 14.3244 14.1787 14.0118C14.4912 13.6993 14.6668 13.2754 14.6668 12.8333V5.535C14.6668 5.31296 14.6224 5.09317 14.5363 4.88853C14.4501 4.6839 14.3239 4.49853 14.1652 4.34333L11.4027 1.64166C11.0913 1.33721 10.6731 1.16672 10.2377 1.16666V1.16666Z" stroke="#222222" stroke-width="1.66667" stroke-linecap="round" stroke-linejoin="round"/>
</svg>
