<svg width="54" height="42" viewBox="0 0 54 42" fill="none" xmlns="http://www.w3.org/2000/svg">
<path d="M51.375 0.375H2.625C1.58789 0.375 0.75 1.21289 0.75 2.25V39.75C0.75 40.7871 1.58789 41.625 2.625 41.625H51.375C52.4121 41.625 53.25 40.7871 53.25 39.75V2.25C53.25 1.21289 52.4121 0.375 51.375 0.375ZM46.6406 6.75586L28.1543 21.1406C27.6973 21.498 27.0586 21.498 26.6016 21.1406L8.10938 6.75586C8.03967 6.70206 7.98854 6.6278 7.96315 6.54349C7.93777 6.45917 7.93941 6.36902 7.96783 6.28568C7.99626 6.20234 8.05005 6.12999 8.12167 6.07876C8.19328 6.02753 8.27913 5.99999 8.36719 6H46.3828C46.4709 5.99999 46.5567 6.02753 46.6283 6.07876C46.7 6.12999 46.7537 6.20234 46.7822 6.28568C46.8106 6.36902 46.8122 6.45917 46.7868 6.54349C46.7615 6.6278 46.7103 6.70206 46.6406 6.75586Z" fill="#4D69B4"/>
</svg>
