<svg width="21" height="15" viewBox="0 0 21 15" fill="none" xmlns="http://www.w3.org/2000/svg">
<path d="M10.5 0.208332C2.54896 0.208332 0.159376 7.10104 0.137501 7.17083L0.0270844 7.5L0.136459 7.82916C0.159376 7.89896 2.54896 14.7917 10.5 14.7917C18.451 14.7917 20.8406 7.89896 20.8625 7.82916L20.9729 7.5L20.8635 7.17083C20.8406 7.10104 18.451 0.208332 10.5 0.208332ZM10.5 12.7083C4.92604 12.7083 2.76667 8.70208 2.24375 7.5C2.76875 6.29375 4.92917 2.29167 10.5 2.29167C16.074 2.29167 18.2333 6.29791 18.7563 7.5C18.2313 8.70625 16.0708 12.7083 10.5 12.7083Z" fill="#222222"/>
</svg>
