<svg width="18" height="16" viewBox="0 0 18 16" fill="none" xmlns="http://www.w3.org/2000/svg">
<path d="M15.3833 1.325C13.1833 -0.175004 10.4667 0.524996 9 2.24166C7.53334 0.524996 4.81667 -0.183338 2.61667 1.325C1.45 2.125 0.716671 3.475 0.666671 4.9C0.550005 8.13333 3.41667 10.725 7.79167 14.7L7.875 14.775C8.50834 15.35 9.48334 15.35 10.1167 14.7667L10.2083 14.6833C14.5833 10.7167 17.4417 8.125 17.3333 4.89166C17.2833 3.475 16.55 2.125 15.3833 1.325ZM9.08334 13.4583L9 13.5417L8.91667 13.4583C4.95 9.86666 2.33334 7.49166 2.33334 5.08333C2.33334 3.41666 3.58334 2.16666 5.25 2.16666C6.53334 2.16666 7.78334 2.99166 8.225 4.13333H9.78334C10.2167 2.99166 11.4667 2.16666 12.75 2.16666C14.4167 2.16666 15.6667 3.41666 15.6667 5.08333C15.6667 7.49166 13.05 9.86666 9.08334 13.4583Z" fill="#222222"/>
</svg>
