<svg width="22" height="20" viewBox="0 0 22 20" fill="none" xmlns="http://www.w3.org/2000/svg">
<path d="M15.5208 0.125C13.7083 0.125 11.9687 0.96875 10.8333 2.30208C9.69784 0.96875 7.95825 0.125 6.14575 0.125C2.93742 0.125 0.416588 2.64583 0.416588 5.85417C0.416588 9.79167 3.95825 13 9.32284 17.875L10.8333 19.2396L12.3437 17.8646C17.7083 13 21.2499 9.79167 21.2499 5.85417C21.2499 2.64583 18.7291 0.125 15.5208 0.125ZM10.9374 16.3229L10.8333 16.4271L10.7291 16.3229C5.77075 11.8333 2.49992 8.86458 2.49992 5.85417C2.49992 3.77083 4.06242 2.20833 6.14575 2.20833C7.74992 2.20833 9.31242 3.23958 9.8645 4.66667H11.8124C12.3541 3.23958 13.9166 2.20833 15.5208 2.20833C17.6041 2.20833 19.1666 3.77083 19.1666 5.85417C19.1666 8.86458 15.8958 11.8333 10.9374 16.3229Z" fill="white"/>
</svg>
