<svg width="101" height="18" viewBox="0 0 101 18" fill="none" xmlns="http://www.w3.org/2000/svg">
<path d="M0.102539 17V1.27344H4.38867V13.3262H9.7168V17H0.102539ZM19.2451 11.6074C19.2451 10.7982 19.041 10.1608 18.6328 9.69531C18.2103 9.22982 17.6589 8.99707 16.9785 8.99707C16.2767 8.99707 15.7253 9.22982 15.3242 9.69531C14.916 10.1465 14.7119 10.7839 14.7119 11.6074C14.7119 12.4095 14.9089 13.0397 15.3027 13.498C15.7324 13.9707 16.291 14.207 16.9785 14.207C17.666 14.207 18.2246 13.9707 18.6543 13.498C19.0482 13.0254 19.2451 12.3952 19.2451 11.6074ZM23.0479 11.6074C23.0479 12.4023 22.8939 13.1436 22.5859 13.8311C22.2637 14.5615 21.8232 15.1917 21.2646 15.7217C20.6344 16.3089 19.9827 16.735 19.3096 17C18.6077 17.2793 17.8307 17.4189 16.9785 17.4189C16.1191 17.4189 15.3421 17.2793 14.6475 17C13.9385 16.7207 13.2832 16.2982 12.6816 15.7324C12.0872 15.1595 11.6576 14.5257 11.3926 13.8311C11.0846 13.165 10.9307 12.4238 10.9307 11.6074C10.9307 10.8125 11.0846 10.0641 11.3926 9.3623C11.679 8.65332 12.1123 8.02311 12.6924 7.47168C13.2581 6.92741 13.9098 6.50846 14.6475 6.21484C15.3493 5.94271 16.1263 5.80664 16.9785 5.80664C17.8236 5.80664 18.6006 5.94271 19.3096 6.21484C20.0472 6.50846 20.6989 6.92741 21.2646 7.47168C21.859 8.00879 22.2995 8.639 22.5859 9.3623C22.8939 10.0641 23.0479 10.8125 23.0479 11.6074ZM32.9521 11.6074C32.9521 10.7982 32.748 10.1608 32.3398 9.69531C31.9173 9.22982 31.3659 8.99707 30.6855 8.99707C29.9837 8.99707 29.4323 9.22982 29.0312 9.69531C28.623 10.1465 28.4189 10.7839 28.4189 11.6074C28.4189 12.4095 28.6159 13.0397 29.0098 13.498C29.4395 13.9707 29.998 14.207 30.6855 14.207C31.373 14.207 31.9316 13.9707 32.3613 13.498C32.7552 13.0254 32.9521 12.3952 32.9521 11.6074ZM36.7549 11.6074C36.7549 12.4023 36.6009 13.1436 36.293 13.8311C35.9707 14.5615 35.5303 15.1917 34.9717 15.7217C34.3415 16.3089 33.6898 16.735 33.0166 17C32.3148 17.2793 31.5378 17.4189 30.6855 17.4189C29.8262 17.4189 29.0492 17.2793 28.3545 17C27.6455 16.7207 26.9902 16.2982 26.3887 15.7324C25.7943 15.1595 25.3646 14.5257 25.0996 13.8311C24.7917 13.165 24.6377 12.4238 24.6377 11.6074C24.6377 10.8125 24.7917 10.0641 25.0996 9.3623C25.3861 8.65332 25.8193 8.02311 26.3994 7.47168C26.9652 6.92741 27.6169 6.50846 28.3545 6.21484C29.0563 5.94271 29.8333 5.80664 30.6855 5.80664C31.5306 5.80664 32.3076 5.94271 33.0166 6.21484C33.7542 6.50846 34.4059 6.92741 34.9717 7.47168C35.5661 8.00879 36.0065 8.639 36.293 9.3623C36.6009 10.0641 36.7549 10.8125 36.7549 11.6074ZM38.9785 17V0.349609H42.7383V10.8877L46.6807 6.15039H51.4287L46.5518 11.3711L51.8691 17H46.8311L42.7383 12.1768V17H38.9785ZM61.3438 11.5645C61.3438 10.7051 61.1182 10.0391 60.667 9.56641C60.2087 9.0651 59.5928 8.81445 58.8193 8.81445C58.0459 8.81445 57.4372 9.05794 56.9932 9.54492C56.5348 10.0462 56.3057 10.7194 56.3057 11.5645C56.3057 12.4167 56.5348 13.0863 56.9932 13.5732C57.43 14.0531 58.0387 14.293 58.8193 14.293C59.5928 14.293 60.2051 14.0531 60.6562 13.5732C61.1146 13.0934 61.3438 12.4238 61.3438 11.5645ZM64.7061 6.15039V17H61.1934V15.2383C60.6849 15.9902 60.1156 16.5417 59.4854 16.8926C58.8623 17.2435 58.1318 17.4189 57.2939 17.4189C55.8402 17.4189 54.6836 16.889 53.8242 15.8291C53.4017 15.3063 53.0794 14.6904 52.8574 13.9814C52.6354 13.2725 52.5244 12.474 52.5244 11.5859C52.5244 9.8099 52.9792 8.40267 53.8887 7.36426C54.7982 6.32585 56.0156 5.80664 57.541 5.80664C58.3574 5.80664 59.0592 5.9821 59.6465 6.33301C60.2409 6.6696 60.7493 7.20312 61.1719 7.93359V6.15039H64.7061ZM75.8672 11.5645C75.8672 10.7051 75.6416 10.0391 75.1904 9.56641C74.7321 9.0651 74.1162 8.81445 73.3428 8.81445C72.5693 8.81445 71.9606 9.05794 71.5166 9.54492C71.0583 10.0462 70.8291 10.7194 70.8291 11.5645C70.8291 12.4167 71.0583 13.0863 71.5166 13.5732C71.9535 14.0531 72.5622 14.293 73.3428 14.293C74.1162 14.293 74.7285 14.0531 75.1797 13.5732C75.638 13.0934 75.8672 12.4238 75.8672 11.5645ZM79.2295 6.15039V17H75.7168V15.2383C75.2083 15.9902 74.639 16.5417 74.0088 16.8926C73.3857 17.2435 72.6553 17.4189 71.8174 17.4189C70.3636 17.4189 69.207 16.889 68.3477 15.8291C67.9251 15.3063 67.6029 14.6904 67.3809 13.9814C67.1589 13.2725 67.0479 12.474 67.0479 11.5859C67.0479 9.8099 67.5026 8.40267 68.4121 7.36426C69.3216 6.32585 70.5391 5.80664 72.0645 5.80664C72.8809 5.80664 73.5827 5.9821 74.1699 6.33301C74.7643 6.6696 75.2728 7.20312 75.6953 7.93359V6.15039H79.2295ZM96.46 17V11.0811C96.46 10.1501 96.3525 9.50553 96.1377 9.14746C95.8942 8.78223 95.4896 8.59961 94.9238 8.59961C94.2005 8.59961 93.7028 8.84668 93.4307 9.34082C93.1514 9.8278 93.0117 10.8483 93.0117 12.4023V17H89.3164V11.0811C89.3164 10.1143 89.1982 9.46257 88.9619 9.12598C88.7471 8.77507 88.3496 8.59961 87.7695 8.59961C87.0462 8.59961 86.5413 8.83952 86.2549 9.31934C85.9756 9.80632 85.8359 10.834 85.8359 12.4023V17H82.1191V6.15039H85.8789V8.04102C86.3372 7.2819 86.86 6.71973 87.4473 6.35449C88.0202 5.98926 88.7148 5.80664 89.5312 5.80664C90.4121 5.80664 91.139 5.97493 91.7119 6.31152C92.2562 6.65527 92.6536 7.16732 92.9043 7.84766C93.3411 7.13867 93.8604 6.62663 94.4619 6.31152C95.0563 5.97493 95.7689 5.80664 96.5996 5.80664C97.2513 5.80664 97.8206 5.91406 98.3076 6.12891C98.8089 6.36523 99.2207 6.69466 99.543 7.11719C99.8151 7.45378 100.005 7.85124 100.112 8.30957C100.22 8.7321 100.273 9.48047 100.273 10.5547V10.791V17H96.46Z" fill="#222222"/>
</svg>
