<svg width="20" height="17" viewBox="0 0 20 17" fill="none" xmlns="http://www.w3.org/2000/svg">
<path d="M19.7024 2.61417C19.0066 2.9225 18.2591 3.13083 17.4733 3.225C18.2841 2.73983 18.8907 1.97622 19.1799 1.07667C18.4181 1.52916 17.5844 1.84766 16.7149 2.01833C16.1302 1.39405 15.3558 0.980272 14.5119 0.841229C13.6679 0.702185 12.8017 0.84566 12.0476 1.24938C11.2936 1.6531 10.6939 2.29447 10.3417 3.07392C9.98954 3.85337 9.90454 4.72729 10.0999 5.56C8.55633 5.4825 7.04628 5.08129 5.66778 4.38242C4.28928 3.68355 3.07313 2.70263 2.09826 1.50333C1.76493 2.07833 1.57326 2.745 1.57326 3.455C1.57289 4.09416 1.73029 4.72354 2.03149 5.28728C2.3327 5.85102 2.7684 6.3317 3.29993 6.68667C2.68349 6.66705 2.08066 6.50049 1.5416 6.20083V6.25083C1.54153 7.14728 1.85162 8.01615 2.41925 8.71C2.98687 9.40385 3.77707 9.87994 4.65576 10.0575C4.08391 10.2123 3.48438 10.2351 2.90243 10.1242C3.15034 10.8955 3.63326 11.57 4.28357 12.0533C4.93388 12.5365 5.71903 12.8043 6.5291 12.8192C5.15396 13.8987 3.45567 14.4842 1.70743 14.4817C1.39775 14.4817 1.08833 14.4637 0.780762 14.4275C2.55533 15.5685 4.62105 16.174 6.73076 16.1717C13.8724 16.1717 17.7766 10.2567 17.7766 5.12667C17.7766 4.96 17.7724 4.79167 17.7649 4.625C18.5243 4.07581 19.1799 3.39575 19.7008 2.61667L19.7024 2.61417Z" fill="#222222"/>
</svg>
