<svg width="18" height="14" viewBox="0 0 18 14" fill="none" xmlns="http://www.w3.org/2000/svg">
<path d="M15.3608 3.66412C15.3717 3.80995 15.3717 3.95496 15.3717 4.09996C15.3717 8.53745 11.9942 13.6508 5.82167 13.6508C3.92 13.6508 2.15334 13.1 0.666672 12.1433C0.936672 12.1741 1.19667 12.185 1.47751 12.185C2.98833 12.1886 4.45638 11.6834 5.645 10.7508C4.94452 10.7381 4.26549 10.507 3.7027 10.0897C3.13992 9.67247 2.72149 9.08987 2.50584 8.42329C2.71334 8.45412 2.92167 8.47496 3.14 8.47496C3.44084 8.47496 3.74334 8.43329 4.02417 8.36079C3.26397 8.2073 2.5804 7.79525 2.08969 7.19469C1.59897 6.59414 1.33142 5.84216 1.33251 5.06662V5.02495C1.78001 5.27412 2.29917 5.42995 2.84917 5.45079C2.38841 5.14461 2.01061 4.72914 1.74945 4.24145C1.4883 3.75375 1.35193 3.209 1.35251 2.65579C1.35251 2.03245 1.51834 1.46079 1.80917 0.962455C2.65262 1.99997 3.70459 2.84876 4.89695 3.45384C6.08931 4.05892 7.39547 4.4068 8.73084 4.47496C8.67917 4.22495 8.6475 3.96579 8.6475 3.70579C8.64729 3.26492 8.73396 2.82834 8.90257 2.42099C9.07118 2.01364 9.31842 1.64352 9.63016 1.33178C9.9419 1.02004 10.312 0.772797 10.7194 0.604186C11.1267 0.435576 11.5633 0.348902 12.0042 0.349122C12.9708 0.349122 13.8433 0.754121 14.4567 1.40912C15.2081 1.2638 15.9288 0.989473 16.5867 0.598288C16.3362 1.37397 15.8115 2.03171 15.1108 2.44829C15.7773 2.37227 16.4287 2.197 17.0433 1.92829C16.5843 2.59754 16.0154 3.18441 15.3608 3.66412Z" fill="#222222"/>
</svg>
