<svg width="18" height="18" viewBox="0 0 18 18" fill="none" xmlns="http://www.w3.org/2000/svg">
<path fill-rule="evenodd" clip-rule="evenodd" d="M2.54334 10.6667H2.33334C1.89131 10.6667 1.46739 10.4911 1.15483 10.1785C0.842266 9.86596 0.666672 9.44203 0.666672 9C0.666672 8.55798 0.842266 8.13405 1.15483 7.82149C1.46739 7.50893 1.89131 7.33334 2.33334 7.33334H2.54334C2.70084 6.72167 2.94334 6.14417 3.25667 5.61334L3.10667 5.46417C2.79416 5.15144 2.61868 4.72737 2.61883 4.28525C2.61899 3.84313 2.79477 3.41919 3.1075 3.10667C3.42024 2.79416 3.84431 2.61868 4.28643 2.61883C4.72854 2.61899 5.15249 2.79477 5.465 3.1075L5.61334 3.25667C6.15024 2.93913 6.72929 2.69898 7.33334 2.54334V2.33334C7.33334 1.89131 7.50893 1.46739 7.82149 1.15483C8.13405 0.842266 8.55798 0.666672 9 0.666672C9.44203 0.666672 9.86596 0.842266 10.1785 1.15483C10.4911 1.46739 10.6667 1.89131 10.6667 2.33334V2.54334C11.2783 2.70084 11.8558 2.94334 12.3867 3.25667L12.5358 3.10667C12.8486 2.79416 13.2726 2.61868 13.7148 2.61883C13.9337 2.61891 14.1504 2.66211 14.3527 2.74595C14.5549 2.8298 14.7386 2.95265 14.8933 3.1075C15.0481 3.26236 15.1708 3.44617 15.2545 3.64845C15.3382 3.85073 15.3813 4.06751 15.3812 4.28643C15.3811 4.50534 15.3379 4.7221 15.2541 4.92432C15.1702 5.12654 15.0474 5.31026 14.8925 5.465L14.7433 5.61334C15.0575 6.14417 15.2992 6.72167 15.4567 7.33334H15.6667C16.1087 7.33334 16.5326 7.50893 16.8452 7.82149C17.1577 8.13405 17.3333 8.55798 17.3333 9C17.3333 9.44203 17.1577 9.86596 16.8452 10.1785C16.5326 10.4911 16.1087 10.6667 15.6667 10.6667H15.4567C15.301 11.2707 15.0609 11.8498 14.7433 12.3867L14.8933 12.5358C15.0481 12.6907 15.1708 12.8745 15.2545 13.0768C15.3382 13.2791 15.3813 13.4958 15.3812 13.7148C15.3811 13.9337 15.3379 14.1504 15.2541 14.3527C15.1702 14.5549 15.0474 14.7386 14.8925 14.8933C14.7377 15.0481 14.5538 15.1708 14.3516 15.2545C14.1493 15.3382 13.9325 15.3813 13.7136 15.3812C13.4947 15.3811 13.2779 15.3379 13.0757 15.2541C12.8735 15.1702 12.6897 15.0474 12.535 14.8925L12.3867 14.7433C11.8498 15.0609 11.2707 15.301 10.6667 15.4567V15.6667C10.6667 16.1087 10.4911 16.5326 10.1785 16.8452C9.86596 17.1577 9.44203 17.3333 9 17.3333C8.55798 17.3333 8.13405 17.1577 7.82149 16.8452C7.50893 16.5326 7.33334 16.1087 7.33334 15.6667V15.4567C6.72929 15.301 6.15024 15.0609 5.61334 14.7433L5.46417 14.8933C5.30932 15.0481 5.12551 15.1708 4.92323 15.2545C4.72095 15.3382 4.50416 15.3813 4.28525 15.3812C4.06633 15.3811 3.84958 15.3379 3.64736 15.2541C3.44514 15.1702 3.26141 15.0474 3.10667 14.8925C2.95193 14.7377 2.82921 14.5538 2.7455 14.3516C2.6618 14.1493 2.61876 13.9325 2.61883 13.7136C2.61891 13.4947 2.66211 13.2779 2.74595 13.0757C2.8298 12.8735 2.95265 12.6897 3.1075 12.535L3.25667 12.3867C2.93913 11.8498 2.69898 11.2707 2.54334 10.6667ZM6.5 7.33334L4.83334 9L8.16667 12.3333L13.1667 7.33334L11.5 5.66667L8.16667 9L6.5 7.33334Z" fill="#4D69B4"/>
</svg>
