<svg width="20" height="21" viewBox="0 0 20 21" fill="none" xmlns="http://www.w3.org/2000/svg">
<path d="M17.0012 3.40751C16.0843 2.48211 14.9924 1.74844 13.7891 1.24927C12.5858 0.750094 11.2952 0.495395 9.9925 0.500012C4.53375 0.500012 0.085 4.94751 0.08 10.4075C0.08 12.1563 0.5375 13.8575 1.40125 15.3638L0 20.5L5.255 19.1225C6.70876 19.9137 8.33741 20.3283 9.9925 20.3288H9.9975C15.4575 20.3288 19.905 15.8813 19.91 10.4163C19.9112 9.11382 19.6548 7.824 19.1553 6.62111C18.6559 5.41822 17.9234 4.32605 17 3.40751H17.0012ZM9.9925 18.6513C8.51625 18.6518 7.06713 18.2545 5.7975 17.5013L5.4975 17.3213L2.38 18.1388L3.2125 15.0975L3.0175 14.7838C2.19226 13.4717 1.75581 11.9525 1.75875 10.4025C1.75875 5.87001 5.455 2.17251 9.9975 2.17251C11.0797 2.17057 12.1515 2.38286 13.1513 2.79713C14.151 3.2114 15.0589 3.81946 15.8225 4.58626C16.5888 5.35007 17.1963 6.25804 17.6099 7.2578C18.0235 8.25756 18.2351 9.32932 18.2325 10.4113C18.2275 14.96 14.5312 18.6513 9.9925 18.6513ZM14.5113 12.4838C14.265 12.36 13.0487 11.7613 12.82 11.6763C12.5925 11.595 12.4262 11.5525 12.2638 11.8C12.0975 12.0463 11.6225 12.6075 11.48 12.7688C11.3375 12.935 11.19 12.9538 10.9425 12.8313C10.6962 12.7063 9.8975 12.4463 8.9525 11.6C8.215 10.9438 7.72125 10.1313 7.57375 9.88501C7.43125 9.63751 7.56 9.50501 7.68375 9.38126C7.7925 9.27126 7.93 9.09126 8.05375 8.94876C8.17875 8.80626 8.22 8.70126 8.30125 8.53626C8.3825 8.36876 8.34375 8.22626 8.2825 8.10251C8.22 7.97876 7.72625 6.75751 7.5175 6.26501C7.3175 5.77876 7.11375 5.84626 6.96125 5.84001C6.81875 5.83126 6.6525 5.83126 6.48625 5.83126C6.3607 5.83438 6.23716 5.86342 6.12337 5.91655C6.00958 5.96968 5.90799 6.04576 5.825 6.14001C5.5975 6.38751 4.96125 6.98626 4.96125 8.20751C4.96125 9.42876 5.84875 10.6025 5.97375 10.7688C6.09625 10.935 7.71625 13.4338 10.2025 14.5088C10.79 14.765 11.2525 14.9163 11.6138 15.0313C12.2075 15.2213 12.7437 15.1925 13.1712 15.1313C13.6462 15.0588 14.635 14.5313 14.8438 13.9525C15.0487 13.3725 15.0488 12.8775 14.9862 12.7738C14.925 12.6688 14.7587 12.6075 14.5113 12.4838Z" fill="#222222"/>
</svg>
