<svg width="20" height="20" viewBox="0 0 20 20" fill="none" xmlns="http://www.w3.org/2000/svg">
<path d="M18.125 0H1.875C0.84375 0 0 0.84375 0 1.875V18.125C0 19.1562 0.84375 20 1.875 20H18.125C19.1562 20 20 19.1562 20 18.125V1.875C20 0.84375 19.1562 0 18.125 0ZM13.75 3.125C13.75 2.78125 14.0312 2.5 14.375 2.5H16.875C17.2188 2.5 17.5 2.78125 17.5 3.125V5.625C17.5 5.96875 17.2188 6.25 16.875 6.25H14.375C14.2093 6.24967 14.0506 6.18372 13.9334 6.06658C13.8163 5.94944 13.7503 5.79066 13.75 5.625V3.125ZM10 6.25C10.9778 6.27525 11.9071 6.68142 12.5897 7.38193C13.2724 8.08243 13.6544 9.02188 13.6544 10C13.6544 10.9781 13.2724 11.9176 12.5897 12.6181C11.9071 13.3186 10.9778 13.7248 10 13.75C9.0222 13.7248 8.09293 13.3186 7.41028 12.6181C6.72763 11.9176 6.34558 10.9781 6.34558 10C6.34558 9.02188 6.72763 8.08243 7.41028 7.38193C8.09293 6.68142 9.0222 6.27525 10 6.25ZM17.5 16.875C17.5 17.2188 17.2188 17.5 16.875 17.5H3.125C2.95934 17.4997 2.80056 17.4337 2.68342 17.3166C2.56628 17.1994 2.50033 17.0407 2.5 16.875V8.75H3.875C3.68938 9.6582 3.70815 10.5963 3.92994 11.4964C4.15173 12.3964 4.57099 13.2358 5.15734 13.9538C5.74368 14.6718 6.48241 15.2503 7.31999 15.6474C8.15758 16.0446 9.07303 16.2504 10 16.25C10.927 16.2504 11.8424 16.0446 12.68 15.6474C13.5176 15.2503 14.2563 14.6718 14.8427 13.9538C15.429 13.2358 15.8483 12.3964 16.0701 11.4964C16.2918 10.5963 16.3106 9.6582 16.125 8.75H17.5V16.875Z" fill="#222222"/>
</svg>
